<?xml version="1.0" encoding="UTF-8"?>
<svg width="164px" height="52px" viewBox="0 0 164 52" version="1.1" xmlns="http://www.w3.org/2000/svg" xmlns:xlink="http://www.w3.org/1999/xlink">
    <!-- Generator: Sketch 64 (93537) - https://sketch.com -->
    <title>SCS</title>
    <desc>Created with Sketch.</desc>
    <g id="Page-1" stroke="none" stroke-width="1" fill="none" fill-rule="evenodd">
        <g id="SCS" fill-rule="nonzero">
            <path d="M51.0769231,26 C51.0769231,40.1538462 39.6923077,51.2307692 25.8461538,51.2307692 C11.6923077,51.2307692 0.615384615,39.8461538 0.615384615,26 C0.615384615,12.1538462 11.6923077,0.461538462 25.8461538,0.461538462 C39.6923077,0.461538462 51.0769231,11.8461538 51.0769231,26 L51.0769231,26 Z" id="Path" fill="#E30613"></path>
            <path d="M16.6153846,38.3076923 L16.3076923,38 L16.3076923,30.3076923 L17.5384615,31.2307692 C19.0769231,32.1538462 20.6153846,33.0769231 22.1538462,33.6923077 C23.6923077,34.3076923 24.9230769,34.6153846 25.8461538,34.6153846 C26.7692308,34.6153846 27.6923077,34.3076923 28.3076923,34 C28.9230769,33.3846154 29.2307692,33.0769231 29.2307692,32.7692308 C29.2307692,32.1538462 28.9230769,31.8461538 28.6153846,31.2307692 C28.3076923,30.9230769 27.0769231,30 25.2307692,29.0769231 C21.5384615,27.2307692 19.3846154,25.3846154 18.1538462,23.8461538 C16.9230769,22.3076923 16.3076923,20.7692308 16.3076923,18.9230769 C16.3076923,16.4615385 17.2307692,14.6153846 19.0769231,13.0769231 C20.9230769,11.5384615 23.0769231,10.9230769 25.8461538,10.9230769 C28.6153846,10.9230769 31.6923077,11.8461538 34.4615385,13.3846154 L34.7692308,13.6923077 L34.7692308,21.0769231 L33.5384615,20.4615385 C30.4615385,18.6153846 27.6923077,17.6923077 25.8461538,17.6923077 C24.9230769,17.6923077 24.3076923,18 23.6923077,18.3076923 C23.0769231,18.6153846 23.0769231,18.9230769 23.0769231,19.5384615 C23.0769231,19.8461538 23.3846154,20.4615385 23.6923077,20.7692308 C24.3076923,21.3846154 25.2307692,22 26.7692308,22.6153846 L28.6153846,23.8461538 C33.2307692,26.6153846 36,29.6923077 36,33.0769231 C36,35.5384615 35.0769231,37.6923077 32.9230769,39.2307692 C31.0769231,40.7692308 28.6153846,41.6923077 25.5384615,41.6923077 C23.6923077,41.6923077 22.1538462,41.3846154 20.9230769,41.0769231 C20.3076923,39.8461538 18.7692308,39.2307692 16.6153846,38.3076923" id="Path" fill="#FFFFFF"></path>
            <path d="M163.692308,26 C163.692308,40.1538462 152.307692,51.2307692 138.461538,51.2307692 C124.615385,51.2307692 113.230769,39.8461538 113.230769,26 C113.230769,12.1538462 124.615385,0.461538462 138.461538,0.461538462 C152.307692,0.461538462 163.692308,11.8461538 163.692308,26 L163.692308,26 Z" id="Path" fill="#E30613"></path>
            <path d="M128.923077,38.3076923 L128.923077,30.6153846 L130.153846,31.5384615 C131.692308,32.4615385 133.230769,33.3846154 134.769231,34 C136.307692,34.6153846 137.538462,34.9230769 138.461538,34.9230769 C139.384615,34.9230769 140.307692,34.6153846 140.923077,34.3076923 C141.538462,33.6923077 141.846154,33.3846154 141.846154,33.0769231 C141.846154,32.4615385 141.538462,32.1538462 141.230769,31.5384615 C140.923077,31.2307692 139.692308,30.3076923 137.846154,29.3846154 C134.153846,27.5384615 132,25.6923077 130.769231,24.1538462 C129.538462,22.6153846 128.923077,21.0769231 128.923077,19.2307692 C128.923077,16.7692308 129.846154,14.9230769 131.692308,13.3846154 C133.538462,11.8461538 135.692308,11.2307692 138.461538,11.2307692 C141.230769,11.2307692 144.307692,12.1538462 147.076923,13.6923077 L147.384615,14 L147.384615,21.3846154 L146.153846,20.7692308 C143.076923,18.9230769 140.307692,18 138.461538,18 C137.538462,18 136.923077,18.3076923 136.307692,18.6153846 C135.692308,18.9230769 135.692308,19.2307692 135.692308,19.8461538 C135.692308,20.1538462 136,20.7692308 136.307692,21.0769231 C136.923077,21.6923077 137.846154,22.3076923 139.384615,22.9230769 L141.230769,24.1538462 C145.846154,26.9230769 148.615385,30 148.615385,33.3846154 C148.615385,35.8461538 147.692308,38 145.538462,39.5384615 C143.692308,41.0769231 141.230769,42 138.153846,42 C136.307692,42 135.076923,41.6923077 133.538462,41.3846154 C132.307692,41.0769231 130.461538,40.4615385 128.615385,39.5384615" id="Path" fill="#FFFFFF"></path>
            <path d="M107.384615,26 C107.384615,40.1538462 96,51.2307692 82.1538462,51.2307692 C68,51.2307692 56.9230769,39.8461538 56.9230769,26 C56.9230769,12.1538462 68,0.461538462 82.1538462,0.461538462 C96,0.461538462 107.384615,11.8461538 107.384615,26 L107.384615,26 Z" id="Path" fill="#E30613"></path>
            <path d="M72.3076923,36.7692308 C69.5384615,34 68.3076923,30.3076923 68.3076923,26 C68.3076923,21.3846154 69.5384615,17.6923077 72.3076923,14.9230769 C75.0769231,12.1538462 78.4615385,10.6153846 82.7692308,10.6153846 C84.3076923,10.6153846 85.5384615,10.6153846 86.7692308,10.9230769 C88,11.2307692 89.5384615,11.8461538 91.0769231,12.4615385 L91.3846154,12.7692308 L91.3846154,20.4615385 L90.1538462,19.8461538 C87.3846154,18 84.9230769,17.3846154 82.7692308,17.3846154 C80.6153846,17.3846154 78.7692308,18.3076923 77.2307692,19.8461538 C75.6923077,21.3846154 75.0769231,23.5384615 75.0769231,26 C75.0769231,28.7692308 76,30.6153846 77.5384615,32.1538462 C79.0769231,33.6923077 81.2307692,34.3076923 84,34.3076923 C85.8461538,34.3076923 88.3076923,33.6923077 91.0769231,32.4615385 L92.3076923,31.8461538 L92.3076923,38.9230769 L91.6923077,39.2307692 C88.9230769,40.1538462 86.1538462,40.7692308 83.3846154,40.7692308 C78.7692308,40.7692308 75.0769231,39.5384615 72.3076923,36.7692308 L72.3076923,36.7692308 Z" id="Path" fill="#FFFFFF"></path>
        </g>
    </g>
</svg>